<mxfile host="app.diagrams.net" modified="2023-05-21T09:23:57.197Z" agent="Mozilla/5.0 (Macintosh; Intel Mac OS X 10_15_7) AppleWebKit/605.1.15 (KHTML, like Gecko) Version/16.4 Safari/605.1.15" version="21.3.2" etag="c5QxQ9fKM7STg_3v-Zhk" type="github">
  <diagram name="第 1 页" id="DG1vW_fgKVeBE8bOy8mY">
    <mxGraphModel>
      <root>
        <mxCell id="0" />
        <mxCell id="1" parent="0" />
      </root>
    </mxGraphModel>
  </diagram>
</mxfile>
